<svg width="1920" height="240" viewBox="0 0 1920 240" xmlns="http://www.w3.org/2000/svg"><rect width="1920" height="240" fill="#18181b"/><path d="M 0,240 C 0,240 0,40 0,40 C 101.24871794871797,39.27948717948718 202.49743589743593,38.55897435897436 295,38 C 387.50256410256407,37.44102564102564 471.25897435897434,37.04358974358975 580,40 C 688.7410256410257,42.95641025641025 822.4666666666665,49.26666666666666 932,46 C 1041.5333333333335,42.73333333333334 1126.8743589743588,29.889743589743592 1247,26 C 1367.1256410256412,22.110256410256408 1522.0358974358974,27.174358974358974 1640,31 C 1757.9641025641026,34.825641025641026 1838.9820512820513,37.41282051282052 1920,40 C 1920,40 1920,240 1920,240 Z" fill="#52525b" opacity="0.09999999999999999"/><path d="M 0,240 C 0,240 0,80 0,80 C 134.60512820512824,83.68205128205128 269.2102564102565,87.36410256410257 375,89 C 480.7897435897435,90.63589743589743 557.7641025641025,90.22564102564102 668,87 C 778.2358974358975,83.77435897435898 921.7333333333333,77.73333333333333 1009,75 C 1096.2666666666667,72.26666666666667 1127.302564102564,72.84102564102564 1236,76 C 1344.697435897436,79.15897435897436 1531.0564102564101,84.9025641025641 1658,86 C 1784.9435897435899,87.0974358974359 1852.4717948717948,83.54871794871795 1920,80 C 1920,80 1920,240 1920,240 Z" fill="#52525b" opacity="0.19999999999999998"/><path d="M 0,240 C 0,240 0,120 0,120 C 113.14871794871792,125.76923076923076 226.29743589743583,131.53846153846152 333,133 C 439.70256410256417,134.46153846153848 539.9589743589744,131.6153846153846 651,128 C 762.0410256410256,124.38461538461539 883.8666666666666,120 974,117 C 1064.1333333333334,114 1122.5743589743588,112.3846153846154 1224,116 C 1325.4256410256412,119.6153846153846 1469.8358974358976,128.46153846153848 1593,130 C 1716.1641025641024,131.53846153846152 1818.0820512820512,125.76923076923076 1920,120 C 1920,120 1920,240 1920,240 Z" fill="#52525b" opacity="0.3"/><path d="M 0,240 C 0,240 0,160 0,160 C 76.98461538461538,154.83076923076922 153.96923076923076,149.66153846153844 267,150 C 380.03076923076924,150.33846153846156 529.1076923076923,156.18461538461537 635,158 C 740.8923076923077,159.81538461538463 803.6000000000001,157.60000000000002 905,161 C 1006.3999999999999,164.39999999999998 1146.4923076923078,173.41538461538462 1273,174 C 1399.5076923076922,174.58461538461538 1512.430769230769,166.73846153846154 1618,163 C 1723.569230769231,159.26153846153846 1821.7846153846153,159.63076923076923 1920,160 C 1920,160 1920,240 1920,240 Z" fill="#52525b" opacity="0.39999999999999997"/><path d="M 0,240 C 0,240 0,200 0,200 C 74.4025641025641,204.5846153846154 148.8051282051282,209.16923076923078 263,206 C 377.1948717948718,202.83076923076922 531.1820512820514,191.9076923076923 641,193 C 750.8179487179486,194.0923076923077 816.4666666666667,207.2 921,209 C 1025.5333333333333,210.8 1168.951282051282,201.29230769230773 1278,199 C 1387.048717948718,196.70769230769227 1461.7282051282052,201.6307692307692 1563,203 C 1664.2717948717948,204.3692307692308 1792.1358974358973,202.1846153846154 1920,200 C 1920,200 1920,240 1920,240 Z" fill="#52525b" opacity="0.49999999999999994"/></svg>